:FULLY-SPECIFIED
:FORCE-ALL-JOINTS-BE-3DOF
:DEGREES
747
root 3.69647 17.9704 13.7252 -153.104 -0.614473 179.634
lfemur -41.4668 11.9239 -13.4597
ltibia 62.4686 0 0
lfoot -18.1372 12.6538 0
ltoes 26.6565 0 0
rfemur -23.2858 -21.0069 14.6435
rtibia 79.312 0 0
rfoot 8.23378 -23.7269 0
rtoes 17.4198 0 0
lowerback 3.59133 2.94289 -2.24834
upperback -1.10605 3.8059 -3.16407
thorax -3.02492 1.94012 -2.12525
lowerneck -5.72647 -7.51989 -2.0497
upperneck -0.81035 -9.93846 5.19845
head 1.09869 -4.87994 1.68286
lclavicle -2.11296e-014 7.47115e-014 0
lhumerus -33.5369 -14.567 64.8823
lradius 60.22 0 0
lwrist 19.7684 0 0
lhand -23.1078 -5.1061 0
lfingers 7.12502 0 0
lthumb 3.33904 24.8464 0
rclavicle -2.11296e-014 7.47115e-014 0
rhumerus -20.4741 34.2534 -76.7556
rradius 87.5345 0 0
rwrist 1.61318 0 0
rhand -17.2505 -23.9101 0
rfingers 7.12502 0 0
rthumb 8.98939 -773.58 0
748
root 3.64039 17.8592 13.9105 -153.494 2.09165 180.34
lfemur -41.714 12.7493 -14.1465
ltibia 62.3856 0 0
lfoot -18.9364 13.3443 0
ltoes 26.5572 0 0
rfemur -22.9562 -21.6137 15.161
rtibia 78.7589 0 0
rfoot 7.82347 -23.8227 0
rtoes 16.6226 0 0
lowerback 3.51617 3.05215 -2.26313
upperback -1.09924 3.95493 -3.21396
thorax -2.97146 2.01501 -2.17509
lowerneck -5.69034 -7.55327 -2.03772
upperneck -0.822118 -9.98156 5.20778
head 1.0902 -4.90061 1.68373
lclavicle -2.21937e-014 7.60524e-014 0
lhumerus -34.5296 -14.3897 66.3904
lradius 60.7065 0 0
lwrist 19.6818 0 0
lhand -23.1355 -5.16085 0
lfingers 7.12502 0 0
lthumb 3.31222 24.7921 0
rclavicle -2.21937e-014 7.60524e-014 0
rhumerus -20.7747 35.3814 -78.2931
rradius 87.1682 0 0
rwrist 1.97202 0 0
rhand -16.9597 -23.5975 0
rfingers 7.12502 0 0
rthumb 9.27 -773.258 0
749
root 3.58432 17.748 14.0958 -153.885 4.79777 181.046
lfemur -41.9612 13.5747 -14.8334
ltibia 62.3026 0 0
lfoot -19.7355 14.0347 0
ltoes 26.4579 0 0
rfemur -22.6265 -22.2206 15.6786
rtibia 78.2057 0 0
rfoot 7.41317 -23.9184 0
rtoes 15.8254 0 0
lowerback 3.44101 3.16141 -2.27792
upperback -1.09244 4.10396 -3.26384
thorax -2.91801 2.08991 -2.22492
lowerneck -5.65422 -7.58665 -2.02574
upperneck -0.833886 -10.0247 5.21712
head 1.0817 -4.92128 1.68459
lclavicle -2.32578e-014 7.73932e-014 0
lhumerus -35.5222 -14.2124 67.8985
lradius 61.193 0 0
lwrist 19.5953 0 0
lhand -23.1633 -5.2156 0
lfingers 7.12502 0 0
lthumb 3.2854 24.7378 0
rclavicle -2.32578e-014 7.73932e-014 0
rhumerus -21.0753 36.5095 -79.8306
rradius 86.8019 0 0
rwrist 2.33086 0 0
rhand -16.669 -23.2848 0
rfingers 7.12502 0 0
rthumb 9.5506 -772.936 0
750
root 3.52824 17.6367 14.2811 -154.276 7.50389 181.752
lfemur -42.2083 14.4002 -15.5202
ltibia 62.2196 0 0
lfoot -20.5346 14.7252 0
ltoes 26.3586 0 0
rfemur -22.2968 -22.8275 16.1962
rtibia 77.6526 0 0
rfoot 7.00286 -24.0141 0
rtoes 15.0281 0 0
lowerback 3.36584 3.27066 -2.29271
upperback -1.08563 4.253 -3.31373
thorax -2.86455 2.1648 -2.27476
lowerneck -5.61809 -7.62003 -2.01376
upperneck -0.845654 -10.0678 5.22645
head 1.0732 -4.94195 1.68545
lclavicle -2.43219e-014 7.8734e-014 0
lhumerus -36.5149 -14.0351 69.4066
lradius 61.6795 0 0
lwrist 19.5087 0 0
lhand -23.1911 -5.27035 0
lfingers 7.12502 0 0
lthumb 3.25859 24.6835 0
rclavicle -2.43219e-014 7.8734e-014 0
rhumerus -21.3759 37.6375 -81.3681
rradius 86.4356 0 0
rwrist 2.68971 0 0
rhand -16.3782 -22.9722 0
rfingers 7.12502 0 0
rthumb 9.83121 -772.613 0
